<svg xmlns="http://www.w3.org/2000/svg" width="400" height="400" version="1" viewBox="0 0 300.000000 300.000000"><path d="M16.2 150.2l.3 139.3 25.2.3 25.3.2.2-119.4.3-119.5 2.1-2.8c4.5-6 15.7-6.7 21.7-1.3l3.2 2.8.5 119.9.5 119.8 25.3.3 25.2.2V169.7c0-103.4-.2-121.1-1.5-126-3.5-13.3-11.4-23.5-22.7-29.2-6.7-3.3-7.6-3.5-17.5-3.5-12.3 0-23.6 2.1-31.5 5.9L67 19.6V11H16l.2 139.2zm139.8.3V290h51v-3.6c0-2 .3-3.4.8-3.2.4.2 3 1.5 5.7 3 7.4 3.8 12.7 5 23.6 4.9 12.1 0 21.1-2.1 30.2-6.8 8.2-4.3 12.4-9.4 15.9-19.3l2.3-6.5.3-89c.2-62.4 0-91.4-.8-97-2.8-19.7-11.9-28.6-32.3-31.7-11.5-1.8-29.2 1-43.9 6.7-1.7.7-1.8-.6-1.8-17.9V11h-51v139.5zm71.5-76.1c1.9.8 4.4 3 5.5 4.8 2 3.2 2 4.8 2 85.3 0 91.6.4 87-7 90.8-4.4 2.3-12.1 1.8-15.8-1-5.3-3.9-5.3-3.1-5-91.2.3-77.1.4-81.8 2.1-84.5 3.4-5.1 11.4-7 18.2-4.2z"/></svg>