<svg xmlns="http://www.w3.org/2000/svg" viewBox="0 0 310.31 65.99" enable-background="new 0 0 310.31 65.99"><style type="text/css">.st0{fill-rule:evenodd;clip-rule:evenodd;fill:#DF2213;} .st1{fill-rule:evenodd;clip-rule:evenodd;}</style><path d="M17.63 10.9c-3.35 0-5.96.64-7.84 1.88V10.9H0v54.48h9.8v-45.3c0-1.96.92-2.95 2.82-2.95 1.88 0 2.83 1 2.83 2.96v45.28h9.8v-45.3c0-2.73-.8-4.94-2.35-6.63-1.58-1.7-3.32-2.55-5.27-2.55zm22.76 0c-8.44 0-12.63 3.07-12.63 9.2v36.1c0 6.4 4.2 9.57 12.62 9.57C48.8 65.77 53 62.6 53 56.2V41.84h-9.8V56.2c0 2-.95 2.96-2.83 2.96-1.9 0-2.84-.97-2.84-2.96V38.16h15.46V20.1c0-6.13-4.22-9.2-12.63-9.2zm2.82 21.03h-5.66V20.1c0-1.98.93-2.97 2.83-2.97 1.87 0 2.82 1 2.82 2.96v11.83zm34.8-19.53c-1.88-1.25-4.2-1.88-6.94-1.88-2.15 0-4.05.63-5.7 1.9V10.9H55.6v54.48h9.8v-7.55c2 1.16 4.62 1.72 7.83 1.72 1.96 0 3.7-.53 5.27-1.64 1.56-1.07 2.34-3.58 2.34-7.54V20.1c0-3.88-.95-6.46-2.82-7.7zm-6.97 37.96c0 2-.95 2.96-2.83 2.96-1.9 0-2.83-.97-2.83-2.96V20.1c0-1.98.92-2.97 2.82-2.97 1.88 0 2.83 1 2.83 2.96v30.26zm24.8-39.46h-9.78v11.68h-2.9v6.22h2.9v24.9c0 4.05.9 6.98 2.74 8.86 1.84 1.88 5.13 2.82 9.9 2.82h4.72v-6.22H98.7c-1.92 0-2.84-1.8-2.84-5.45V28.8h7.56v-6.22h-7.56V10.9zm25.8 45.3c0 2-.95 2.96-2.83 2.96-1.9 0-2.83-.97-2.83-2.96V10.9h-9.8v45.3c0 2.76.76 4.98 2.3 6.67 1.56 1.68 3.33 2.5 5.3 2.5 3.33 0 5.94-.6 7.85-1.87v1.88h9.8V10.9h-9.8v45.3zm35.3-42.75c-1.57-1.7-3.3-2.55-5.27-2.55-3.35 0-5.96.64-7.83 1.88V10.9h-9.8v54.48h9.8v-45.3c0-1.96.92-2.95 2.82-2.95 1.88 0 2.83 1 2.83 2.96v45.28h9.8v-45.3c0-2.73-.8-4.94-2.34-6.63z" class="st0"/><path d="M184.37 18.37c-1.58-1.08-3.32-1.63-5.28-1.63-3.22 0-5.83.58-7.85 1.72V10.9h-9.8v54.48h9.8v-1.52c1.64 1.27 3.54 1.9 5.7 1.9 2.74 0 5.05-.6 6.93-1.84 1.87-1.25 2.82-3.82 2.82-7.72V25.93c0-3.93-.78-6.45-2.33-7.56zM176.9 56.2c0 2-.94 2.96-2.82 2.96-1.9 0-2.83-.97-2.83-2.96V25.93c0-1.97.93-2.96 2.83-2.96 1.88 0 2.83 1 2.83 2.96V56.2zm30.15-45.3c-3.34 0-5.96.64-7.83 1.88V10.9h-9.8v54.48h9.8v-45.3c0-1.96.92-2.95 2.83-2.95 1.87 0 2.83 1 2.83 2.96v11.83h9.8V20.1c0-2.75-.8-4.96-2.35-6.65-1.58-1.7-3.32-2.55-5.28-2.55zm10.34 54.48h9.67V10.9h-9.68v54.48zm5-65.38c-1.37 0-2.54.53-3.57 1.52-1.03 1-1.52 2.16-1.52 3.46 0 1.33.47 2.5 1.45 3.5.95.98 2.1 1.48 3.45 1.48s2.5-.47 3.46-1.44c.95-.97 1.44-2.16 1.44-3.6 0-1.38-.46-2.57-1.4-3.5-.9-.95-2-1.42-3.3-1.42zm32.2 10.9h-9.8v1.8c-2.98-1.2-5.24-1.8-6.76-1.8-5.8 0-8.68 3.07-8.68 9.2v25.97c0 6.14 2.88 9.2 8.68 9.2 1.52 0 3.78-.57 6.77-1.67 0 3.2-1.57 4.78-4.67 4.78h-8.84v7h11.28c4.87 0 8.16-1.16 9.9-3.48 1.7-2.33 2.42-5.1 2.12-8.3V10.9zm-9.8 35.17c0 2-.94 2.96-2.82 2.96-1.9 0-2.83-.97-2.83-2.96V20.1c0-1.98.93-2.97 2.83-2.97 1.88 0 2.83 1 2.83 2.96v25.97zm25.23-35.17c-8.44 0-12.63 3.07-12.63 9.2v8.32h9.8V20.1c0-1.98.92-2.97 2.83-2.97 1.87 0 2.83 1 2.83 2.96v7.54c-.3.78-1.96 1.83-4.98 3.1-4.35 2.27-7.2 4.18-8.52 5.67-1.3 1.5-1.96 3.28-1.96 5.3v17.46c0 4.56 2.83 6.83 8.52 6.83 3.86 0 6.17-.78 6.94-2.36v1.74h9.8v-45.3c0-6.1-4.23-9.18-12.63-9.18zm2.83 45.3c0 2-.96 2.96-2.83 2.96-1.9 0-2.83-.97-2.83-2.96V39.8c-.06-1.67 1.85-2.8 5.66-3.44V56.2zm27.66-45.3v7.56c-2-1.14-4.62-1.72-7.83-1.72-2 0-3.77.55-5.32 1.63-1.55 1.1-2.3 3.63-2.3 7.56V56.2c0 3.9.9 6.47 2.8 7.72 1.84 1.24 4.15 1.85 6.93 1.85 2.13 0 4.03-.64 5.72-1.9v1.5h9.8V10.9h-9.8zm0 45.3c0 2-.95 2.96-2.83 2.96-1.9 0-2.84-.97-2.84-2.96V25.93c0-1.97.93-2.96 2.83-2.96 1.87 0 2.82 1 2.82 2.96V56.2zm-21.7-55l-16.17 2.65v5.13l16.17-2.66V1.2z" class="st1"/></svg>